<svg width="255" height="33" viewBox="0 0 255 33" fill="none" xmlns="http://www.w3.org/2000/svg">
<path d="M69.9858 17.407C69.9858 20.0039 69.4991 22.2282 68.5256 24.0798C67.56 25.9235 66.2411 27.3357 64.569 28.3164C62.9047 29.2972 61.0166 29.7875 58.9048 29.7875C56.793 29.7875 54.9011 29.2972 53.2289 28.3164C51.5646 27.3279 50.2457 25.9117 49.2722 24.068C48.3066 22.2164 47.8238 19.9961 47.8238 17.407C47.8238 14.8101 48.3066 12.5897 49.2722 10.746C50.2457 8.89441 51.5646 7.47826 53.2289 6.49755C54.9011 5.51684 56.793 5.02648 58.9048 5.02648C61.0166 5.02648 62.9047 5.51684 64.569 6.49755C66.2411 7.47826 67.56 8.89441 68.5256 10.746C69.4991 12.5897 69.9858 14.8101 69.9858 17.407ZM65.5935 17.407C65.5935 15.5789 65.3069 14.0373 64.7338 12.782C64.1686 11.5188 63.3835 10.5655 62.3787 9.9222C61.3738 9.271 60.2159 8.94541 58.9048 8.94541C57.5938 8.94541 56.4358 9.271 55.431 9.9222C54.4261 10.5655 53.6371 11.5188 53.064 12.782C52.4988 14.0373 52.2162 15.5789 52.2162 17.407C52.2162 19.235 52.4988 20.7806 53.064 22.0438C53.6371 23.2991 54.4261 24.2524 55.431 24.9036C56.4358 25.5469 57.5938 25.8686 58.9048 25.8686C60.2159 25.8686 61.3738 25.5469 62.3787 24.9036C63.3835 24.2524 64.1686 23.2991 64.7338 22.0438C65.3069 20.7806 65.5935 19.235 65.5935 17.407Z" fill="#3C3C3C"/>
<path d="M75.77 29.458V11.3815H79.9033V14.3942H80.0917C80.4214 13.3508 80.9867 12.5466 81.7874 11.9817C82.596 11.409 83.5184 11.1226 84.5547 11.1226C84.7902 11.1226 85.0532 11.1344 85.3437 11.1579C85.642 11.1736 85.8893 11.201 86.0856 11.2403V15.1592C85.905 15.0964 85.6185 15.0415 85.2259 14.9944C84.8413 14.9395 84.4684 14.9121 84.1072 14.9121C83.33 14.9121 82.6313 15.0807 82.0111 15.4181C81.3988 15.7476 80.916 16.2066 80.5627 16.795C80.2095 17.3835 80.0328 18.0621 80.0328 18.831V29.458H75.77Z" fill="#3C3C3C"/>
<path d="M97.9048 29.811C96.0992 29.811 94.5487 29.4148 93.2534 28.6224C91.9659 27.83 90.9728 26.7355 90.2741 25.339C89.5833 23.9346 89.2379 22.3184 89.2379 20.4904C89.2379 18.6545 89.5911 17.0343 90.2977 15.6299C91.0042 14.2177 92.0012 13.1193 93.2887 12.3347C94.5841 11.5423 96.1149 11.1461 97.8813 11.1461C99.3493 11.1461 100.649 11.4168 101.779 11.9582C102.917 12.4917 103.824 13.2488 104.499 14.2295C105.174 15.2024 105.559 16.34 105.653 17.6424H101.579C101.414 16.7715 101.021 16.0458 100.401 15.4652C99.7889 14.8768 98.9686 14.5825 97.9401 14.5825C97.0687 14.5825 96.3033 14.8179 95.6439 15.2887C94.9844 15.7516 94.4702 16.4184 94.1012 17.2893C93.7401 18.1602 93.5596 19.2037 93.5596 20.4197C93.5596 21.6515 93.7401 22.7107 94.1012 23.5973C94.4624 24.476 94.9687 25.1546 95.6203 25.6332C96.2798 26.104 97.053 26.3393 97.9401 26.3393C98.5682 26.3393 99.1295 26.2216 99.6241 25.9863C100.127 25.7431 100.547 25.3939 100.884 24.9389C101.222 24.4838 101.453 23.9307 101.579 23.2795H105.653C105.551 24.5584 105.174 25.6921 104.523 26.6806C103.871 27.6613 102.984 28.4302 101.861 28.9873C100.739 29.5365 99.42 29.811 97.9048 29.811Z" fill="#3C3C3C"/>
<path d="M115.259 18.8663V29.458H110.996V5.356H115.164V14.4531H115.376C115.8 13.4331 116.456 12.629 117.343 12.0405C118.238 11.4443 119.376 11.1461 120.758 11.1461C122.014 11.1461 123.109 11.409 124.043 11.9346C124.978 12.4603 125.7 13.2292 126.21 14.2413C126.728 15.2534 126.987 16.489 126.987 17.9483V29.458H122.725V18.6074C122.725 17.3913 122.411 16.4459 121.782 15.7712C121.162 15.0886 120.291 14.7473 119.168 14.7473C118.415 14.7473 117.739 14.9121 117.143 15.2416C116.554 15.5633 116.091 16.0301 115.753 16.642C115.424 17.254 115.259 17.9954 115.259 18.8663Z" fill="#3C3C3C"/>
<path d="M141.182 29.811C139.369 29.811 137.803 29.4345 136.484 28.6813C135.173 27.9202 134.164 26.8454 133.457 25.4567C132.751 24.0602 132.398 22.4165 132.398 20.5257C132.398 18.6662 132.751 17.0343 133.457 15.6299C134.172 14.2177 135.169 13.1193 136.449 12.3347C137.728 11.5423 139.232 11.1461 140.959 11.1461C142.073 11.1461 143.125 11.3266 144.115 11.6875C145.112 12.0405 145.991 12.5897 146.752 13.3351C147.522 14.0804 148.126 15.0297 148.566 16.1831C149.005 17.3285 149.225 18.6937 149.225 20.2785V21.5848H134.4V18.7133H145.139C145.131 17.8974 144.955 17.1716 144.609 16.5361C144.264 15.8928 143.781 15.3867 143.161 15.018C142.548 14.6492 141.834 14.4649 141.018 14.4649C140.146 14.4649 139.381 14.6767 138.721 15.1004C138.062 15.5162 137.548 16.0654 137.179 16.748C136.817 17.4227 136.633 18.1641 136.625 18.9722V21.4789C136.625 22.5302 136.817 23.4325 137.202 24.1857C137.587 24.931 138.125 25.5038 138.815 25.9039C139.506 26.2962 140.315 26.4923 141.241 26.4923C141.861 26.4923 142.423 26.406 142.925 26.2334C143.428 26.053 143.863 25.7901 144.232 25.4449C144.601 25.0997 144.88 24.6721 145.068 24.1621L149.049 24.6094C148.797 25.6607 148.318 26.5786 147.612 27.3632C146.913 28.1399 146.018 28.744 144.927 29.1755C143.836 29.5992 142.588 29.811 141.182 29.811Z" fill="#3C3C3C"/>
<path d="M168.97 16.1595L165.084 16.5832C164.974 16.1909 164.781 15.8222 164.507 15.477C164.24 15.1317 163.879 14.8532 163.423 14.6414C162.968 14.4296 162.41 14.3236 161.751 14.3236C160.864 14.3236 160.118 14.5159 159.514 14.9003C158.917 15.2847 158.623 15.7829 158.63 16.3949C158.623 16.9206 158.815 17.3482 159.207 17.6777C159.608 18.0072 160.267 18.2779 161.186 18.4897L164.271 19.1487C165.982 19.5175 167.254 20.102 168.086 20.9023C168.926 21.7025 169.35 22.7499 169.358 24.0445C169.35 25.1821 169.017 26.1863 168.357 27.0572C167.706 27.9202 166.799 28.595 165.637 29.0814C164.475 29.5678 163.141 29.811 161.633 29.811C159.419 29.811 157.637 29.3482 156.287 28.4224C154.937 27.4887 154.132 26.1903 153.873 24.527L158.03 24.1268C158.218 24.9428 158.619 25.5587 159.231 25.9745C159.843 26.3903 160.64 26.5982 161.621 26.5982C162.634 26.5982 163.447 26.3903 164.059 25.9745C164.679 25.5587 164.989 25.0448 164.989 24.4328C164.989 23.915 164.789 23.4874 164.389 23.15C163.996 22.8127 163.384 22.5538 162.552 22.3733L159.467 21.7261C157.732 21.3652 156.448 20.7571 155.616 19.9019C154.784 19.0389 154.372 17.9484 154.379 16.6303C154.372 15.5162 154.674 14.5512 155.286 13.7352C155.906 12.9114 156.766 12.2759 157.865 11.8287C158.972 11.3737 160.248 11.1461 161.692 11.1461C163.812 11.1461 165.48 11.5973 166.697 12.4995C167.922 13.4018 168.679 14.6218 168.97 16.1595Z" fill="#3C3C3C"/>
<path d="M183.747 11.3815V14.6767H173.349V11.3815H183.747ZM175.917 7.05067H180.179V24.0209C180.179 24.5937 180.266 25.033 180.439 25.339C180.619 25.6371 180.855 25.8411 181.145 25.951C181.436 26.0608 181.757 26.1157 182.111 26.1157C182.378 26.1157 182.621 26.0961 182.841 26.0569C183.068 26.0177 183.241 25.9823 183.359 25.951L184.077 29.2815C183.85 29.3599 183.524 29.4462 183.1 29.5404C182.684 29.6345 182.173 29.6894 181.569 29.7051C180.501 29.7365 179.54 29.5757 178.684 29.2226C177.828 28.8617 177.149 28.3047 176.647 27.5515C176.152 26.7983 175.909 25.8568 175.917 24.727V7.05067Z" fill="#3C3C3C"/>
<path d="M189.155 29.458V11.3815H193.288V14.3942H193.477C193.806 13.3508 194.372 12.5466 195.172 11.9817C195.981 11.409 196.903 11.1226 197.94 11.1226C198.175 11.1226 198.438 11.1344 198.729 11.1579C199.027 11.1736 199.274 11.201 199.47 11.2403V15.1592C199.29 15.0964 199.003 15.0415 198.611 14.9944C198.226 14.9395 197.853 14.9121 197.492 14.9121C196.715 14.9121 196.016 15.0807 195.396 15.4181C194.784 15.7476 194.301 16.2066 193.948 16.795C193.594 17.3835 193.418 18.0621 193.418 18.831V29.458H189.155Z" fill="#3C3C3C"/>
<path d="M209.026 29.8228C207.88 29.8228 206.847 29.6188 205.929 29.2109C205.018 28.795 204.296 28.1831 203.762 27.375C203.236 26.5669 202.973 25.5704 202.973 24.3857C202.973 23.3658 203.161 22.5224 203.538 21.8555C203.915 21.1886 204.429 20.6551 205.081 20.255C205.732 19.8549 206.467 19.5528 207.283 19.3488C208.107 19.137 208.959 18.984 209.838 18.8898C210.898 18.78 211.758 18.6819 212.417 18.5956C213.077 18.5015 213.556 18.3602 213.854 18.172C214.16 17.9758 214.313 17.6737 214.313 17.2658V17.1952C214.313 16.3086 214.05 15.6221 213.524 15.1357C212.998 14.6492 212.241 14.406 211.251 14.406C210.207 14.406 209.379 14.6335 208.767 15.0886C208.162 15.5436 207.754 16.0811 207.542 16.7009L203.562 16.136C203.876 15.0376 204.394 14.1196 205.116 13.3822C205.838 12.6368 206.722 12.0798 207.766 11.711C208.81 11.3344 209.964 11.1461 211.228 11.1461C212.099 11.1461 212.967 11.2481 213.83 11.4521C214.694 11.6561 215.483 11.9935 216.197 12.4642C216.912 12.9271 217.485 13.5587 217.916 14.3589C218.356 15.1592 218.576 16.1595 218.576 17.3599V29.458H214.478V26.9748H214.337C214.078 27.477 213.713 27.9477 213.242 28.3871C212.778 28.8186 212.193 29.1677 211.487 29.4345C210.788 29.6934 209.968 29.8228 209.026 29.8228ZM210.133 26.6924C210.988 26.6924 211.73 26.5237 212.358 26.1863C212.986 25.8411 213.469 25.3861 213.807 24.8212C214.152 24.2563 214.325 23.6404 214.325 22.9735V20.8434C214.191 20.9533 213.964 21.0552 213.642 21.1494C213.328 21.2435 212.975 21.3259 212.582 21.3965C212.19 21.4671 211.801 21.5299 211.416 21.5848C211.032 21.6398 210.698 21.6868 210.415 21.7261C209.779 21.8124 209.21 21.9536 208.708 22.1497C208.205 22.3459 207.809 22.6205 207.518 22.9735C207.228 23.3187 207.083 23.7659 207.083 24.3151C207.083 25.0997 207.369 25.6921 207.942 26.0922C208.516 26.4923 209.246 26.6924 210.133 26.6924Z" fill="#3C3C3C"/>
<path d="M233.737 11.3815V14.6767H223.339V11.3815H233.737ZM225.906 7.05067H230.169V24.0209C230.169 24.5937 230.255 25.033 230.428 25.339C230.608 25.6371 230.844 25.8411 231.134 25.951C231.425 26.0608 231.746 26.1157 232.1 26.1157C232.367 26.1157 232.61 26.0961 232.83 26.0569C233.057 26.0177 233.23 25.9823 233.348 25.951L234.066 29.2815C233.839 29.3599 233.513 29.4462 233.089 29.5404C232.673 29.6345 232.163 29.6894 231.558 29.7051C230.49 29.7365 229.529 29.5757 228.673 29.2226C227.817 28.8617 227.138 28.3047 226.636 27.5515C226.141 26.7983 225.898 25.8568 225.906 24.727V7.05067Z" fill="#3C3C3C"/>
<path d="M246.957 29.811C245.144 29.811 243.577 29.4345 242.259 28.6813C240.948 27.9202 239.939 26.8454 239.232 25.4567C238.526 24.0602 238.172 22.4165 238.172 20.5257C238.172 18.6662 238.526 17.0343 239.232 15.6299C239.947 14.2177 240.944 13.1193 242.223 12.3347C243.503 11.5423 245.006 11.1461 246.733 11.1461C247.848 11.1461 248.9 11.3266 249.889 11.6875C250.886 12.0405 251.766 12.5897 252.527 13.3351C253.296 14.0804 253.901 15.0297 254.341 16.1831C254.78 17.3285 255 18.6937 255 20.2785V21.5848H240.174V18.7133H250.914C250.906 17.8974 250.729 17.1716 250.384 16.5361C250.038 15.8928 249.556 15.3867 248.935 15.018C248.323 14.6492 247.609 14.4649 246.792 14.4649C245.921 14.4649 245.155 14.6767 244.496 15.1004C243.837 15.5162 243.322 16.0654 242.953 16.748C242.592 17.4227 242.408 18.1641 242.4 18.9722V21.4789C242.4 22.5302 242.592 23.4325 242.977 24.1857C243.362 24.931 243.899 25.5038 244.59 25.9039C245.281 26.2962 246.09 26.4923 247.016 26.4923C247.636 26.4923 248.198 26.406 248.7 26.2334C249.202 26.053 249.638 25.7901 250.007 25.4449C250.376 25.0997 250.655 24.6721 250.843 24.1621L254.823 24.6094C254.572 25.6607 254.093 26.5786 253.387 27.3632C252.688 28.1399 251.793 28.744 250.702 29.1755C249.611 29.5992 248.362 29.811 246.957 29.811Z" fill="#3C3C3C"/>
<path d="M14.5974 0L14.189 0.746159C11.4414 6.11278 11.9073 12.3505 14.9626 17.1653C12.5136 22.3883 13.0273 28.349 15.9503 33C13.3389 32.9029 10.7122 32.1905 8.2916 30.7939C0.362854 26.219 -2.35386 16.0868 2.22333 8.1628C4.93491 3.46906 9.5985 0.60594 14.5974 0Z" fill="#7A4DFF"/>
<path d="M30.6127 7.62161C25.5545 7.43309 20.557 9.57221 17.2186 13.6071C15.5612 9.95148 15.6282 5.58007 17.7889 1.83933C18.1574 1.20148 18.574 0.608599 19.0285 0.0593333C21.0299 0.357403 23.0114 1.02577 24.8701 2.09824C27.2903 3.49482 29.2231 5.4103 30.6127 7.62161Z" fill="#7A4DFF"/>
<path d="M30.9366 24.7293C28.5287 28.8972 24.5824 31.6216 20.2285 32.6044C17.3525 29.2807 16.3463 24.6574 17.6558 20.4016C18.3536 21.0501 19.1123 21.6501 19.937 22.1834L20.6656 22.6293C23.8981 24.4942 27.498 25.1429 30.9383 24.7257L30.9366 24.7293Z" fill="#7A4DFF"/>
<path d="M32.4064 11.5214C33.3135 14.4356 33.4177 17.5915 32.6223 20.6299C29.3488 21.6004 25.6985 21.2804 22.5079 19.4397C21.2955 18.74 20.2426 17.8709 19.3559 16.883C22.3022 12.5877 27.48 10.5783 32.4064 11.5214Z" fill="#7A4DFF"/>
</svg>
