<svg width="156" height="35" viewBox="0 0 156 35" fill="none" xmlns="http://www.w3.org/2000/svg">
<path d="M45.9891 17.4545C45.9891 18.8651 45.7249 20.0732 45.1965 21.0788C44.6724 22.0803 43.9565 22.8473 43.0488 23.38C42.1454 23.9126 41.1205 24.179 39.9742 24.179C38.8279 24.179 37.8009 23.9126 36.8932 23.38C35.9898 22.843 35.2739 22.0739 34.7455 21.0724C34.2214 20.0668 33.9593 18.8608 33.9593 17.4545C33.9593 16.044 34.2214 14.8381 34.7455 13.8366C35.2739 12.831 35.9898 12.0618 36.8932 11.5291C37.8009 10.9964 38.8279 10.7301 39.9742 10.7301C41.1205 10.7301 42.1454 10.9964 43.0488 11.5291C43.9565 12.0618 44.6724 12.831 45.1965 13.8366C45.7249 14.8381 45.9891 16.044 45.9891 17.4545ZM43.6049 17.4545C43.6049 16.4616 43.4494 15.6243 43.1383 14.9425C42.8315 14.2564 42.4053 13.7386 41.8599 13.3892C41.3144 13.0355 40.6859 12.8587 39.9742 12.8587C39.2626 12.8587 38.634 13.0355 38.0886 13.3892C37.5431 13.7386 37.1148 14.2564 36.8038 14.9425C36.4969 15.6243 36.3435 16.4616 36.3435 17.4545C36.3435 18.4474 36.4969 19.2869 36.8038 19.973C37.1148 20.6548 37.5431 21.1726 38.0886 21.5263C38.634 21.8757 39.2626 22.0504 39.9742 22.0504C40.6859 22.0504 41.3144 21.8757 41.8599 21.5263C42.4053 21.1726 42.8315 20.6548 43.1383 19.973C43.4494 19.2869 43.6049 18.4474 43.6049 17.4545ZM49.1289 24V14.1818H51.3725V15.8182H51.4747C51.6537 15.2514 51.9605 14.8146 52.3952 14.5078C52.8341 14.1967 53.3348 14.0412 53.8973 14.0412C54.0252 14.0412 54.1679 14.0476 54.3256 14.0604C54.4875 14.0689 54.6218 14.0838 54.7283 14.1051V16.2337C54.6303 16.1996 54.4747 16.1697 54.2617 16.1442C54.0529 16.1143 53.8505 16.0994 53.6544 16.0994C53.2326 16.0994 52.8533 16.1911 52.5166 16.3743C52.1843 16.5533 51.9222 16.8026 51.7304 17.1222C51.5387 17.4418 51.4428 17.8104 51.4428 18.228V24H49.1289ZM61.144 24.1918C60.1638 24.1918 59.3222 23.9766 58.6191 23.5462C57.9202 23.1158 57.3812 22.5213 57.0019 21.7628C56.6269 21 56.4394 20.1222 56.4394 19.1293C56.4394 18.1321 56.6312 17.2521 57.0147 16.4893C57.3982 15.7223 57.9394 15.1257 58.6383 14.6996C59.3414 14.2692 60.1724 14.054 61.1312 14.054C61.928 14.054 62.6333 14.201 63.2469 14.495C63.8648 14.7848 64.357 15.196 64.7235 15.7287C65.09 16.2571 65.2988 16.875 65.3499 17.5824H63.1383C63.0488 17.1094 62.8357 16.7152 62.4991 16.3999C62.1667 16.0803 61.7214 15.9205 61.1631 15.9205C60.6901 15.9205 60.2746 16.0483 59.9167 16.304C59.5587 16.5554 59.2796 16.9176 59.0793 17.3906C58.8833 17.8636 58.7853 18.4304 58.7853 19.0909C58.7853 19.7599 58.8833 20.3352 59.0793 20.8168C59.2753 21.294 59.5502 21.6626 59.9039 21.9226C60.2619 22.1783 60.6816 22.3061 61.1631 22.3061C61.504 22.3061 61.8087 22.2422 62.0772 22.1143C62.3499 21.9822 62.5779 21.7926 62.7611 21.5455C62.9444 21.2983 63.0701 20.9979 63.1383 20.6442H65.3499C65.2945 21.3388 65.09 21.9545 64.7363 22.4915C64.3826 23.0241 63.9011 23.4418 63.2917 23.7443C62.6823 24.0426 61.9664 24.1918 61.144 24.1918ZM70.5639 18.2472V24H68.25V10.9091H70.5127V15.8501H70.6278C70.8579 15.2962 71.2137 14.8594 71.6953 14.5398C72.1811 14.2159 72.799 14.054 73.549 14.054C74.2308 14.054 74.8252 14.1967 75.3323 14.4822C75.8394 14.7678 76.2315 15.1854 76.5085 15.7351C76.7897 16.2848 76.9304 16.956 76.9304 17.7486V24H74.6164V18.1065C74.6164 17.446 74.446 16.9325 74.1051 16.5661C73.7684 16.1953 73.2954 16.0099 72.686 16.0099C72.2769 16.0099 71.9105 16.0994 71.5866 16.2784C71.267 16.4531 71.0156 16.7067 70.8323 17.0391C70.6534 17.3714 70.5639 17.7741 70.5639 18.2472ZM84.6356 24.1918C83.6512 24.1918 82.8011 23.9872 82.0852 23.5781C81.3735 23.1648 80.8259 22.581 80.4424 21.8267C80.0589 21.0682 79.8671 20.1754 79.8671 19.1484C79.8671 18.1385 80.0589 17.2521 80.4424 16.4893C80.8302 15.7223 81.3714 15.1257 82.066 14.6996C82.7606 14.2692 83.5767 14.054 84.5142 14.054C85.1193 14.054 85.6903 14.152 86.2272 14.348C86.7684 14.5398 87.2457 14.8381 87.659 15.2429C88.0767 15.6477 88.4048 16.1634 88.6434 16.7898C88.8821 17.4119 89.0014 18.1534 89.0014 19.0142V19.7237H80.9538V18.1641H86.7833C86.7791 17.7209 86.6832 17.3267 86.4957 16.9815C86.3082 16.6321 86.0461 16.3572 85.7095 16.157C85.3771 15.9567 84.9893 15.8565 84.5461 15.8565C84.0731 15.8565 83.6576 15.9716 83.2997 16.2017C82.9417 16.4276 82.6626 16.7259 82.4623 17.0966C82.2663 17.4631 82.1661 17.8658 82.1619 18.3047V19.6662C82.1619 20.2372 82.2663 20.7273 82.4751 21.1364C82.6839 21.5412 82.9758 21.8523 83.3508 22.0696C83.7258 22.2827 84.1647 22.3892 84.6676 22.3892C85.0042 22.3892 85.3089 22.3423 85.5816 22.2486C85.8544 22.1506 86.0909 22.0078 86.2911 21.8203C86.4914 21.6328 86.6427 21.4006 86.745 21.1236L88.9055 21.3665C88.7691 21.9375 88.5092 22.4361 88.1257 22.8622C87.7464 23.2841 87.2606 23.6122 86.6683 23.8466C86.076 24.0767 85.3984 24.1918 84.6356 24.1918ZM99.7189 16.777L97.6095 17.0071C97.5498 16.794 97.4454 16.5938 97.2963 16.4062C97.1514 16.2188 96.9554 16.0675 96.7082 15.9524C96.4611 15.8374 96.1585 15.7798 95.8006 15.7798C95.319 15.7798 94.9142 15.8842 94.5861 16.093C94.2622 16.3018 94.1024 16.5724 94.1067 16.9048C94.1024 17.1903 94.2068 17.4226 94.4199 17.6016C94.6372 17.7805 94.9952 17.9276 95.4937 18.0426L97.1685 18.4006C98.0974 18.6009 98.7878 18.9183 99.2395 19.353C99.6954 19.7876 99.9256 20.3565 99.9298 21.0597C99.9256 21.6776 99.7445 22.223 99.3865 22.696C99.0328 23.1648 98.5406 23.5312 97.9099 23.7955C97.2793 24.0597 96.5548 24.1918 95.7366 24.1918C94.5349 24.1918 93.5676 23.9403 92.8347 23.4375C92.1017 22.9304 91.6649 22.2251 91.5243 21.3217L93.7807 21.1044C93.8829 21.5476 94.1003 21.8821 94.4327 22.108C94.765 22.3338 95.1976 22.4467 95.7302 22.4467C96.28 22.4467 96.721 22.3338 97.0534 22.108C97.39 21.8821 97.5584 21.603 97.5584 21.2706C97.5584 20.9893 97.4497 20.7571 97.2324 20.5739C97.0193 20.3906 96.6869 20.25 96.2352 20.152L94.5605 19.8004C93.6187 19.6044 92.922 19.2741 92.4703 18.8097C92.0186 18.3409 91.7949 17.7486 91.7991 17.0327C91.7949 16.4276 91.9589 15.9034 92.2913 15.4602C92.628 15.0128 93.0946 14.6676 93.6912 14.4247C94.292 14.1776 94.9845 14.054 95.7686 14.054C96.9192 14.054 97.8247 14.299 98.4852 14.7891C99.15 15.2791 99.5612 15.9418 99.7189 16.777ZM107.741 14.1818V15.9716H102.096V14.1818H107.741ZM103.49 11.8295H105.804V21.0469C105.804 21.358 105.851 21.5966 105.944 21.7628C106.042 21.9247 106.17 22.0355 106.328 22.0952C106.486 22.1548 106.66 22.1847 106.852 22.1847C106.997 22.1847 107.129 22.174 107.248 22.1527C107.372 22.1314 107.466 22.1122 107.53 22.0952L107.92 23.9041C107.796 23.9467 107.619 23.9936 107.389 24.0447C107.163 24.0959 106.886 24.1257 106.558 24.1342C105.978 24.1513 105.456 24.0639 104.992 23.8722C104.527 23.6761 104.159 23.3736 103.886 22.9645C103.618 22.5554 103.486 22.044 103.49 21.4304V11.8295ZM110.676 24V14.1818H112.919V15.8182H113.022C113.201 15.2514 113.507 14.8146 113.942 14.5078C114.381 14.1967 114.882 14.0412 115.444 14.0412C115.572 14.0412 115.715 14.0476 115.872 14.0604C116.034 14.0689 116.169 14.0838 116.275 14.1051V16.2337C116.177 16.1996 116.022 16.1697 115.809 16.1442C115.6 16.1143 115.397 16.0994 115.201 16.0994C114.779 16.0994 114.4 16.1911 114.064 16.3743C113.731 16.5533 113.469 16.8026 113.277 17.1222C113.086 17.4418 112.99 17.8104 112.99 18.228V24H110.676ZM121.462 24.1982C120.84 24.1982 120.279 24.0874 119.781 23.8658C119.287 23.6399 118.894 23.3075 118.605 22.8686C118.319 22.4297 118.176 21.8885 118.176 21.245C118.176 20.6911 118.279 20.233 118.483 19.8707C118.688 19.5085 118.967 19.2188 119.321 19.0014C119.674 18.7841 120.073 18.62 120.516 18.5092C120.963 18.3942 121.426 18.3111 121.903 18.2599C122.478 18.2003 122.945 18.147 123.303 18.1001C123.661 18.049 123.921 17.9723 124.083 17.87C124.249 17.7635 124.332 17.5994 124.332 17.3778V17.3395C124.332 16.858 124.189 16.4851 123.904 16.2209C123.618 15.9567 123.207 15.8246 122.67 15.8246C122.103 15.8246 121.654 15.9482 121.321 16.1953C120.993 16.4425 120.772 16.7344 120.657 17.071L118.496 16.7642C118.667 16.1676 118.948 15.669 119.34 15.2685C119.732 14.8636 120.211 14.5611 120.778 14.3608C121.345 14.1562 121.971 14.054 122.657 14.054C123.13 14.054 123.601 14.1094 124.07 14.2202C124.539 14.331 124.967 14.5142 125.355 14.7699C125.742 15.0213 126.054 15.3643 126.288 15.799C126.527 16.2337 126.646 16.777 126.646 17.429V24H124.421V22.6513H124.345C124.204 22.924 124.006 23.1797 123.75 23.4183C123.499 23.6527 123.181 23.8423 122.798 23.9872C122.419 24.1278 121.973 24.1982 121.462 24.1982ZM122.063 22.4979C122.527 22.4979 122.93 22.4062 123.271 22.223C123.612 22.0355 123.874 21.7884 124.057 21.4815C124.245 21.1747 124.338 20.8402 124.338 20.478V19.321C124.266 19.3807 124.142 19.4361 123.968 19.4872C123.797 19.5384 123.605 19.5831 123.392 19.6214C123.179 19.6598 122.968 19.6939 122.76 19.7237C122.551 19.7536 122.37 19.7791 122.216 19.8004C121.871 19.8473 121.562 19.924 121.289 20.0305C121.017 20.1371 120.801 20.2862 120.644 20.478C120.486 20.6655 120.407 20.9084 120.407 21.2067C120.407 21.6328 120.563 21.9545 120.874 22.1719C121.185 22.3892 121.581 22.4979 122.063 22.4979ZM134.875 14.1818V15.9716H129.231V14.1818H134.875ZM130.625 11.8295H132.939V21.0469C132.939 21.358 132.985 21.5966 133.079 21.7628C133.177 21.9247 133.305 22.0355 133.463 22.0952C133.62 22.1548 133.795 22.1847 133.987 22.1847C134.132 22.1847 134.264 22.174 134.383 22.1527C134.507 22.1314 134.6 22.1122 134.664 22.0952L135.054 23.9041C134.931 23.9467 134.754 23.9936 134.524 24.0447C134.298 24.0959 134.021 24.1257 133.693 24.1342C133.113 24.1513 132.591 24.0639 132.127 23.8722C131.662 23.6761 131.294 23.3736 131.021 22.9645C130.752 22.5554 130.62 22.044 130.625 21.4304V11.8295ZM142.052 24.1918C141.067 24.1918 140.217 23.9872 139.501 23.5781C138.79 23.1648 138.242 22.581 137.858 21.8267C137.475 21.0682 137.283 20.1754 137.283 19.1484C137.283 18.1385 137.475 17.2521 137.858 16.4893C138.246 15.7223 138.787 15.1257 139.482 14.6996C140.177 14.2692 140.993 14.054 141.93 14.054C142.535 14.054 143.106 14.152 143.643 14.348C144.184 14.5398 144.662 14.8381 145.075 15.2429C145.493 15.6477 145.821 16.1634 146.059 16.7898C146.298 17.4119 146.417 18.1534 146.417 19.0142V19.7237H138.37V18.1641H144.199C144.195 17.7209 144.099 17.3267 143.912 16.9815C143.724 16.6321 143.462 16.3572 143.125 16.157C142.793 15.9567 142.405 15.8565 141.962 15.8565C141.489 15.8565 141.074 15.9716 140.716 16.2017C140.358 16.4276 140.079 16.7259 139.878 17.0966C139.682 17.4631 139.582 17.8658 139.578 18.3047V19.6662C139.578 20.2372 139.682 20.7273 139.891 21.1364C140.1 21.5412 140.392 21.8523 140.767 22.0696C141.142 22.2827 141.581 22.3892 142.084 22.3892C142.42 22.3892 142.725 22.3423 142.998 22.2486C143.27 22.1506 143.507 22.0078 143.707 21.8203C143.907 21.6328 144.059 21.4006 144.161 21.1236L146.322 21.3665C146.185 21.9375 145.925 22.4361 145.542 22.8622C145.162 23.2841 144.677 23.6122 144.084 23.8466C143.492 24.0767 142.814 24.1918 142.052 24.1918Z" fill="#3C3C3C"/>
<path d="M15.9236 8L15.7019 8.40527C14.2105 11.3201 14.4634 14.7081 16.1218 17.3232C14.7925 20.1601 15.0714 23.3977 16.658 25.9238C15.2405 25.8711 13.8146 25.4842 12.5007 24.7256C8.1969 22.2408 6.72222 16.7375 9.20679 12.4336C10.6787 9.88421 13.2101 8.32911 15.9236 8ZM24.6169 12.1396C21.8712 12.0373 19.1586 13.1991 17.3464 15.3906C16.4468 13.4051 16.4831 11.0308 17.656 8.99902C17.856 8.65258 18.0822 8.33056 18.3289 8.03223C19.4153 8.19412 20.4908 8.55714 21.4998 9.13965C22.8135 9.8982 23.8626 10.9386 24.6169 12.1396ZM24.7927 21.4316C23.4857 23.6954 21.3436 25.1751 18.9802 25.709C17.4191 23.9037 16.8729 21.3926 17.5837 19.0811C17.9625 19.4333 18.3744 19.7592 18.822 20.0488L19.2175 20.291C20.9722 21.304 22.9262 21.6563 24.7937 21.4297L24.7927 21.4316ZM25.5906 14.2578C26.083 15.8407 26.1395 17.5547 25.7078 19.2051C23.9309 19.7322 21.9495 19.5584 20.2175 18.5586C19.5594 18.1786 18.9879 17.7065 18.5066 17.1699C20.1059 14.837 22.9165 13.7455 25.5906 14.2578Z" fill="#7A4DFF"/>
</svg>
